<?xml version="1.0" encoding="UTF-8" standalone="no"?><!DOCTYPE svg PUBLIC "-//W3C//DTD SVG 1.1//EN" "http://www.w3.org/Graphics/SVG/1.1/DTD/svg11.dtd"><!-- Generated by graphviz version 2.40.1 (20161225.0304)
 --><!-- Title: aiohttp requirements Pages: 1 --><svg xmlns="http://www.w3.org/2000/svg" xmlns:xlink="http://www.w3.org/1999/xlink" width="1195pt" height="332pt" viewBox="0.00 0.00 1194.84 332.00">
<g id="graph0" class="graph" transform="scale(1 1) rotate(0) translate(4 328)">
<title>aiohttp requirements</title>
<polygon fill="#ffffff" stroke="transparent" points="-4,4 -4,-328 1190.8428,-328 1190.8428,4 -4,4"/>
<!-- aiohttp -->
<g id="node1" class="node">
<title>aiohttp</title>
<ellipse fill="#00ff00" stroke="#000000" cx="508.9592" cy="-306" rx="37.7198" ry="18"/>
<text text-anchor="middle" x="508.9592" y="-301.8" font-family="Times,serif" font-size="14.00" fill="#000000">aiohttp</text>
</g>
<!-- brotli -->
<g id="node2" class="node">
<title>brotli</title>
<ellipse fill="#f0f8ff" stroke="#000000" cx="31.9592" cy="-234" rx="31.9185" ry="18"/>
<text text-anchor="middle" x="31.9592" y="-229.8" font-family="Times,serif" font-size="14.00" fill="#000000">brotli</text>
</g>
<!-- aiohttp&#45;&gt;brotli -->
<g id="edge1" class="edge">
<title>aiohttp-&gt;brotli</title>
<path fill="none" stroke="#000000" d="M470.9177,-304.9828C394.2744,-302.1322 216.3638,-291.4503 72.9592,-252 70.5326,-251.3324 68.064,-250.5458 65.6029,-249.681"/>
<polygon fill="#000000" stroke="#000000" points="66.8406,-246.407 56.252,-246.0438 64.303,-252.9309 66.8406,-246.407"/>
</g>
<!-- aiodns -->
<g id="node3" class="node">
<title>aiodns</title>
<ellipse fill="#f0f8ff" stroke="#000000" cx="117.9592" cy="-234" rx="36.4975" ry="18"/>
<text text-anchor="middle" x="117.9592" y="-229.8" font-family="Times,serif" font-size="14.00" fill="#000000">aiodns</text>
</g>
<!-- aiohttp&#45;&gt;aiodns -->
<g id="edge2" class="edge">
<title>aiohttp-&gt;aiodns</title>
<path fill="none" stroke="#000000" d="M471.5111,-302.946C407.4003,-297.1022 272.8938,-282.1489 162.9592,-252 160.3118,-251.274 157.6083,-250.4406 154.906,-249.5392"/>
<polygon fill="#000000" stroke="#000000" points="155.8223,-246.1489 145.2279,-246.0462 153.4459,-252.7332 155.8223,-246.1489"/>
</g>
<!-- attrs -->
<g id="node4" class="node">
<title>attrs</title>
<ellipse fill="none" stroke="#000000" cx="199.9592" cy="-234" rx="27.8228" ry="18"/>
<text text-anchor="middle" x="199.9592" y="-229.8" font-family="Times,serif" font-size="14.00" fill="#000000">attrs</text>
</g>
<!-- aiohttp&#45;&gt;attrs -->
<g id="edge3" class="edge">
<title>aiohttp-&gt;attrs</title>
<path fill="none" stroke="#000000" d="M471.9319,-301.8768C418.6572,-295.2328 317.7902,-279.9802 235.9592,-252 234.1244,-251.3726 232.2644,-250.6698 230.4062,-249.9152"/>
<polygon fill="#000000" stroke="#000000" points="231.8126,-246.7101 221.2552,-245.8207 228.9537,-253.0997 231.8126,-246.7101"/>
</g>
<!-- cchardet -->
<g id="node5" class="node">
<title>cchardet</title>
<ellipse fill="#f0f8ff" stroke="#000000" cx="288.9592" cy="-234" rx="43.9789" ry="18"/>
<text text-anchor="middle" x="288.9592" y="-229.8" font-family="Times,serif" font-size="14.00" fill="#000000">cchardet</text>
</g>
<!-- aiohttp&#45;&gt;cchardet -->
<g id="edge4" class="edge">
<title>aiohttp-&gt;cchardet</title>
<path fill="none" stroke="#000000" d="M477.2097,-295.8863C443.5807,-285.1382 388.96,-267.5793 341.9592,-252 338.8692,-250.9757 335.6803,-249.9113 332.4713,-248.8348"/>
<polygon fill="#000000" stroke="#000000" points="333.4571,-245.4736 322.8629,-245.5969 331.2216,-252.1071 333.4571,-245.4736"/>
</g>
<!-- frozenlist -->
<g id="node6" class="node">
<title>frozenlist</title>
<ellipse fill="#f0f8ff" stroke="#000000" cx="396.9592" cy="-162" rx="47.5061" ry="18"/>
<text text-anchor="middle" x="396.9592" y="-157.8" font-family="Times,serif" font-size="14.00" fill="#000000">frozenlist</text>
</g>
<!-- aiohttp&#45;&gt;frozenlist -->
<g id="edge5" class="edge">
<title>aiohttp-&gt;frozenlist</title>
<path fill="none" stroke="#000000" d="M499.3585,-288.2812C488.8332,-269.5246 470.9054,-239.4496 451.9592,-216 443.3327,-205.3229 432.7887,-194.5322 423.249,-185.4333"/>
<polygon fill="#000000" stroke="#000000" points="425.5643,-182.8066 415.8695,-178.5334 420.7835,-187.9197 425.5643,-182.8066"/>
</g>
<!-- yarl -->
<g id="node7" class="node">
<title>yarl</title>
<ellipse fill="#f0f8ff" stroke="#000000" cx="563.9592" cy="-234" rx="27" ry="18"/>
<text text-anchor="middle" x="563.9592" y="-229.8" font-family="Times,serif" font-size="14.00" fill="#000000">yarl</text>
</g>
<!-- aiohttp&#45;&gt;yarl -->
<g id="edge6" class="edge">
<title>aiohttp-&gt;yarl</title>
<path fill="none" stroke="#000000" d="M521.9935,-288.937C528.9423,-279.8403 537.6138,-268.4886 545.2676,-258.4691"/>
<polygon fill="#000000" stroke="#000000" points="548.1081,-260.5163 551.3972,-250.4449 542.5454,-256.267 548.1081,-260.5163"/>
</g>
<!-- multidict -->
<g id="node8" class="node">
<title>multidict</title>
<ellipse fill="#0000ff" stroke="#000000" cx="507.9592" cy="-162" rx="45.8214" ry="18"/>
<text text-anchor="middle" x="507.9592" y="-157.8" font-family="Times,serif" font-size="14.00" fill="#000000">multidict</text>
</g>
<!-- aiohttp&#45;&gt;multidict -->
<g id="edge7" class="edge">
<title>aiohttp-&gt;multidict</title>
<path fill="none" stroke="#000000" d="M508.8326,-287.7623C508.662,-263.201 508.3568,-219.2474 508.1561,-190.3541"/>
<polygon fill="#000000" stroke="#000000" points="511.6543,-190.065 508.0849,-180.0896 504.6545,-190.1137 511.6543,-190.065"/>
</g>
<!-- async&#45;timeout -->
<g id="node9" class="node">
<title>async-timeout</title>
<ellipse fill="#f0f8ff" stroke="#000000" cx="674.9592" cy="-234" rx="65.989" ry="18"/>
<text text-anchor="middle" x="674.9592" y="-229.8" font-family="Times,serif" font-size="14.00" fill="#000000">async-timeout</text>
</g>
<!-- aiohttp&#45;&gt;async&#45;timeout -->
<g id="edge8" class="edge">
<title>aiohttp-&gt;async-timeout</title>
<path fill="none" stroke="#000000" d="M537.1189,-293.7862C562.66,-282.7081 600.7417,-266.1907 630.4097,-253.3227"/>
<polygon fill="#000000" stroke="#000000" points="631.9385,-256.4747 639.72,-249.2845 629.1531,-250.0527 631.9385,-256.4747"/>
</g>
<!-- charset&#45;normalizer -->
<g id="node10" class="node">
<title>charset-normalizer</title>
<ellipse fill="#f0f8ff" stroke="#000000" cx="1091.9592" cy="-234" rx="83.3403" ry="18"/>
<text text-anchor="middle" x="1091.9592" y="-229.8" font-family="Times,serif" font-size="14.00" fill="#000000">charset-normalizer</text>
</g>
<!-- aiohttp&#45;&gt;charset&#45;normalizer -->
<g id="edge9" class="edge">
<title>aiohttp-&gt;charset-normalizer</title>
<path fill="none" stroke="#000000" d="M546.2834,-302.9317C628.3939,-295.953 830.7822,-277.4988 998.9592,-252 1006.3078,-250.8858 1013.9603,-249.604 1021.5804,-248.2485"/>
<polygon fill="#000000" stroke="#000000" points="1022.3401,-251.6678 1031.5508,-246.432 1021.0854,-244.7812 1022.3401,-251.6678"/>
</g>
<!-- aiosignal -->
<g id="node11" class="node">
<title>aiosignal</title>
<ellipse fill="#f0f8ff" stroke="#000000" cx="396.9592" cy="-234" rx="45.8041" ry="18"/>
<text text-anchor="middle" x="396.9592" y="-229.8" font-family="Times,serif" font-size="14.00" fill="#000000">aiosignal</text>
</g>
<!-- aiohttp&#45;&gt;aiosignal -->
<g id="edge10" class="edge">
<title>aiohttp-&gt;aiosignal</title>
<path fill="none" stroke="#000000" d="M486.2944,-291.4297C470.0349,-280.9772 447.8805,-266.7351 429.7022,-255.049"/>
<polygon fill="#000000" stroke="#000000" points="431.4454,-252.0088 421.1409,-249.5454 427.66,-257.8971 431.4454,-252.0088"/>
</g>
<!-- idna&#45;ssl -->
<g id="node12" class="node">
<title>idna-ssl</title>
<ellipse fill="#f0f8ff" stroke="#000000" cx="837.9592" cy="-234" rx="41.1471" ry="18"/>
<text text-anchor="middle" x="837.9592" y="-229.8" font-family="Times,serif" font-size="14.00" fill="#000000">idna-ssl</text>
</g>
<!-- aiohttp&#45;&gt;idna&#45;ssl -->
<g id="edge11" class="edge">
<title>aiohttp-&gt;idna-ssl</title>
<path fill="none" stroke="#000000" d="M545.1808,-300.3065C597.9232,-291.6909 698.7535,-273.9896 782.9592,-252 787.115,-250.9148 791.4165,-249.69 795.6992,-248.4027"/>
<polygon fill="#000000" stroke="#000000" points="797.0762,-251.6396 805.5808,-245.3212 794.9922,-244.957 797.0762,-251.6396"/>
</g>
<!-- asynctest -->
<g id="node13" class="node">
<title>asynctest</title>
<ellipse fill="#f0f8ff" stroke="#000000" cx="943.9592" cy="-234" rx="46.3643" ry="18"/>
<text text-anchor="middle" x="943.9592" y="-229.8" font-family="Times,serif" font-size="14.00" fill="#000000">asynctest</text>
</g>
<!-- aiohttp&#45;&gt;asynctest -->
<g id="edge12" class="edge">
<title>aiohttp-&gt;asynctest</title>
<path fill="none" stroke="#000000" d="M546.4638,-302.7821C614.9513,-296.437 764.5741,-280.4039 887.9592,-252 891.7689,-251.123 895.6915,-250.1058 899.6079,-249.0099"/>
<polygon fill="#000000" stroke="#000000" points="900.6635,-252.3477 909.2629,-246.1588 898.681,-245.6342 900.6635,-252.3477"/>
</g>
<!-- typing&#45;extensions -->
<g id="node14" class="node">
<title>typing-extensions</title>
<ellipse fill="#0000ff" stroke="#000000" cx="689.9592" cy="-162" rx="79.8972" ry="18"/>
<text text-anchor="middle" x="689.9592" y="-157.8" font-family="Times,serif" font-size="14.00" fill="#000000">typing-extensions</text>
</g>
<!-- aiohttp&#45;&gt;typing&#45;extensions -->
<g id="edge13" class="edge">
<title>aiohttp-&gt;typing-extensions</title>
<path fill="none" stroke="#000000" d="M546.584,-303.1662C607.8573,-297.6832 724.9009,-283.2944 749.9592,-252 767.1035,-230.5892 745.1521,-204.3124 723.1366,-185.6922"/>
<polygon fill="#000000" stroke="#000000" points="725.0749,-182.7589 715.095,-179.2018 720.6784,-188.206 725.0749,-182.7589"/>
</g>
<!-- pycares -->
<g id="node15" class="node">
<title>pycares</title>
<ellipse fill="#faebd7" stroke="#000000" cx="204.9592" cy="-162" rx="40.548" ry="18"/>
<text text-anchor="middle" x="204.9592" y="-157.8" font-family="Times,serif" font-size="14.00" fill="#000000">pycares</text>
</g>
<!-- aiodns&#45;&gt;pycares -->
<g id="edge14" class="edge">
<title>aiodns-&gt;pycares</title>
<path fill="none" stroke="#000000" d="M136.8369,-218.3771C148.7561,-208.513 164.3526,-195.6055 177.6142,-184.6304"/>
<polygon fill="#000000" stroke="#000000" points="180.0435,-187.1631 185.516,-178.091 175.5805,-181.7703 180.0435,-187.1631"/>
</g>
<!-- yarl&#45;&gt;multidict -->
<g id="edge20" class="edge">
<title>yarl-&gt;multidict</title>
<path fill="none" stroke="#000000" d="M551.252,-217.6621C544.2937,-208.7157 535.5178,-197.4325 527.6894,-187.3674"/>
<polygon fill="#000000" stroke="#000000" points="530.2993,-185.022 521.3971,-179.2773 524.7738,-189.3196 530.2993,-185.022"/>
</g>
<!-- yarl&#45;&gt;typing&#45;extensions -->
<g id="edge18" class="edge">
<title>yarl-&gt;typing-extensions</title>
<path fill="none" stroke="#000000" d="M584.4837,-222.2717C602.6254,-211.9051 629.5629,-196.5122 651.6737,-183.8774"/>
<polygon fill="#000000" stroke="#000000" points="653.5564,-186.8328 660.5024,-178.8325 650.0834,-180.7551 653.5564,-186.8328"/>
</g>
<!-- idna -->
<g id="node17" class="node">
<title>idna</title>
<ellipse fill="#00bfff" stroke="#000000" cx="429.9592" cy="-90" rx="27.8286" ry="18"/>
<text text-anchor="middle" x="429.9592" y="-85.8" font-family="Times,serif" font-size="14.00" fill="#000000">idna</text>
</g>
<!-- yarl&#45;&gt;idna -->
<g id="edge19" class="edge">
<title>yarl-&gt;idna</title>
<path fill="none" stroke="#000000" d="M569.1734,-216.0452C573.696,-196.5357 577.4772,-165.3069 562.9592,-144 541.6528,-112.73 498.8339,-99.557 467.5162,-94.0141"/>
<polygon fill="#000000" stroke="#000000" points="467.808,-90.5168 457.384,-92.4118 466.7145,-97.4309 467.808,-90.5168"/>
</g>
<!-- async&#45;timeout&#45;&gt;typing&#45;extensions -->
<g id="edge21" class="edge">
<title>async-timeout-&gt;typing-extensions</title>
<path fill="none" stroke="#000000" d="M678.7444,-215.8314C680.3486,-208.131 682.2563,-198.9743 684.0391,-190.4166"/>
<polygon fill="#000000" stroke="#000000" points="687.51,-190.9169 686.1231,-180.4133 680.6571,-189.4892 687.51,-190.9169"/>
</g>
<!-- unicodedata2 -->
<g id="node19" class="node">
<title>unicodedata2</title>
<ellipse fill="#7fff00" stroke="#000000" cx="1091.9592" cy="-162" rx="62.5431" ry="18"/>
<text text-anchor="middle" x="1091.9592" y="-157.8" font-family="Times,serif" font-size="14.00" fill="#000000">unicodedata2</text>
</g>
<!-- charset&#45;normalizer&#45;&gt;unicodedata2 -->
<g id="edge22" class="edge">
<title>charset-normalizer-&gt;unicodedata2</title>
<path fill="none" stroke="#000000" d="M1091.9592,-215.8314C1091.9592,-208.131 1091.9592,-198.9743 1091.9592,-190.4166"/>
<polygon fill="#000000" stroke="#000000" points="1095.4593,-190.4132 1091.9592,-180.4133 1088.4593,-190.4133 1095.4593,-190.4132"/>
</g>
<!-- aiosignal&#45;&gt;frozenlist -->
<g id="edge26" class="edge">
<title>aiosignal-&gt;frozenlist</title>
<path fill="none" stroke="#000000" d="M396.9592,-215.8314C396.9592,-208.131 396.9592,-198.9743 396.9592,-190.4166"/>
<polygon fill="#000000" stroke="#000000" points="400.4593,-190.4132 396.9592,-180.4133 393.4593,-190.4133 400.4593,-190.4132"/>
</g>
<!-- cffi -->
<g id="node16" class="node">
<title>cffi</title>
<ellipse fill="#00bfff" stroke="#000000" cx="204.9592" cy="-90" rx="27" ry="18"/>
<text text-anchor="middle" x="204.9592" y="-85.8" font-family="Times,serif" font-size="14.00" fill="#000000">cffi</text>
</g>
<!-- pycares&#45;&gt;cffi -->
<g id="edge15" class="edge">
<title>pycares-&gt;cffi</title>
<path fill="none" stroke="#000000" d="M204.9592,-143.8314C204.9592,-136.131 204.9592,-126.9743 204.9592,-118.4166"/>
<polygon fill="#000000" stroke="#000000" points="208.4593,-118.4132 204.9592,-108.4133 201.4593,-118.4133 208.4593,-118.4132"/>
</g>
<!-- pycares&#45;&gt;idna -->
<g id="edge16" class="edge">
<title>pycares-&gt;idna</title>
<path fill="none" stroke="#000000" d="M238.1588,-151.3762C280.2575,-137.9046 352.5004,-114.7868 395.288,-101.0948"/>
<polygon fill="#000000" stroke="#000000" points="396.5225,-104.3747 404.98,-97.9933 394.389,-97.7077 396.5225,-104.3747"/>
</g>
<!-- pycparser -->
<g id="node18" class="node">
<title>pycparser</title>
<ellipse fill="#7fffd4" stroke="#000000" cx="204.9592" cy="-18" rx="48.6346" ry="18"/>
<text text-anchor="middle" x="204.9592" y="-13.8" font-family="Times,serif" font-size="14.00" fill="#000000">pycparser</text>
</g>
<!-- cffi&#45;&gt;pycparser -->
<g id="edge17" class="edge">
<title>cffi-&gt;pycparser</title>
<path fill="none" stroke="#000000" d="M204.9592,-71.8314C204.9592,-64.131 204.9592,-54.9743 204.9592,-46.4166"/>
<polygon fill="#000000" stroke="#000000" points="208.4593,-46.4132 204.9592,-36.4133 201.4593,-46.4133 208.4593,-46.4132"/>
</g>
<!-- pytest -->
<g id="node20" class="node">
<title>pytest</title>
<ellipse fill="none" stroke="#000000" cx="1042.9592" cy="-90" rx="34.2065" ry="18"/>
<text text-anchor="middle" x="1042.9592" y="-85.8" font-family="Times,serif" font-size="14.00" fill="#000000">pytest</text>
</g>
<!-- unicodedata2&#45;&gt;pytest -->
<g id="edge23" class="edge">
<title>unicodedata2-&gt;pytest</title>
<path fill="none" stroke="#000000" d="M1079.8469,-144.2022C1073.945,-135.5301 1066.7416,-124.9455 1060.2718,-115.4389"/>
<polygon fill="#000000" stroke="#000000" points="1063.1146,-113.3952 1054.5949,-107.0972 1057.3276,-117.3336 1063.1146,-113.3952"/>
</g>
<!-- coverage -->
<g id="node21" class="node">
<title>coverage</title>
<ellipse fill="#d2691e" stroke="#000000" cx="1140.9592" cy="-90" rx="45.7675" ry="18"/>
<text text-anchor="middle" x="1140.9592" y="-85.8" font-family="Times,serif" font-size="14.00" fill="#000000">coverage</text>
</g>
<!-- unicodedata2&#45;&gt;coverage -->
<g id="edge24" class="edge">
<title>unicodedata2-&gt;coverage</title>
<path fill="none" stroke="#000000" d="M1104.0716,-144.2022C1109.8274,-135.7448 1116.821,-125.4685 1123.1648,-116.147"/>
<polygon fill="#000000" stroke="#000000" points="1126.2534,-117.8294 1128.9862,-107.593 1120.4664,-113.891 1126.2534,-117.8294"/>
</g>
<!-- tomli -->
<g id="node22" class="node">
<title>tomli</title>
<ellipse fill="#dc143c" stroke="#000000" cx="1140.9592" cy="-18" rx="31.3564" ry="18"/>
<text text-anchor="middle" x="1140.9592" y="-13.8" font-family="Times,serif" font-size="14.00" fill="#000000">tomli</text>
</g>
<!-- coverage&#45;&gt;tomli -->
<g id="edge25" class="edge">
<title>coverage-&gt;tomli</title>
<path fill="none" stroke="#000000" d="M1140.9592,-71.8314C1140.9592,-64.131 1140.9592,-54.9743 1140.9592,-46.4166"/>
<polygon fill="#000000" stroke="#000000" points="1144.4593,-46.4132 1140.9592,-36.4133 1137.4593,-46.4133 1144.4593,-46.4132"/>
</g>
</g>
</svg>